<svg version="1.1" xmlns="http://www.w3.org/2000/svg" viewBox="0 0 983.26429111054 352.3586904668409" width="983.26429111054" height="352.3586904668409">
  <!-- svg-source:excalidraw -->
  
  <defs>
    <style class="style-fonts">
      @font-face {
        font-family: "Virgil";
        src: url("https://excalidraw.com/Virgil.woff2");
      }
      @font-face {
        font-family: "Cascadia";
        src: url("https://excalidraw.com/Cascadia.woff2");
      }
      @font-face {
        font-family: "Assistant";
        src: url("https://excalidraw.com/Assistant-Regular.woff2");
      }
    </style>
    
  </defs>
  <rect x="0" y="0" width="983.26429111054" height="352.3586904668409" fill="#ffffff"></rect><g stroke-linecap="round" transform="translate(10 37.060332982243835) rotate(0 199.2094841229382 152.52194982593664)"><path d="M32 0 C140.6 2.2, 248.18 0.67, 366.42 0 M32 0 C122.14 -0.63, 212.54 -1.37, 366.42 0 M366.42 0 C389.25 1.69, 400.31 9.91, 398.42 32 M366.42 0 C389.36 0.39, 396.93 10.54, 398.42 32 M398.42 32 C399.56 85.65, 400.17 140.48, 398.42 273.04 M398.42 32 C398.36 118.53, 399.16 206.38, 398.42 273.04 M398.42 273.04 C397.67 294, 386.35 303.62, 366.42 305.04 M398.42 273.04 C400.67 293.42, 389.79 305.99, 366.42 305.04 M366.42 305.04 C259.01 303.94, 150.69 303.96, 32 305.04 M366.42 305.04 C257.24 306.26, 147.73 305.88, 32 305.04 M32 305.04 C10.19 306.85, 1.79 293.95, 0 273.04 M32 305.04 C9.29 306.54, -2.21 292.86, 0 273.04 M0 273.04 C0.51 212.58, 0.36 154.27, 0 32 M0 273.04 C-0.56 219.41, 0.85 166, 0 32 M0 32 C-0.58 9.06, 9.6 0.03, 32 0 M0 32 C-2.06 9.3, 9.66 0.35, 32 0" stroke="#1e1e1e" stroke-width="2" fill="none"></path></g><g transform="translate(138.50931760938295 10) rotate(0 66.689453125 11.5)"><text x="0" y="18.400390625" font-family="Helvetica, Segoe UI Emoji" font-size="20px" fill="#1e1e1e" text-anchor="start" style="white-space: pre;" direction="ltr" dominant-baseline="alphabetic">Forwarder side</text></g><g stroke-linecap="round" transform="translate(600.0899014999779 40.54852334625639) rotate(0 186.587194805281 150.90508356029227)"><path d="M32 0 C118.23 0.96, 204.89 0.51, 341.17 0 M32 0 C110.76 -0.14, 188.51 0.27, 341.17 0 M341.17 0 C360.62 1.15, 373.44 10.87, 373.17 32 M341.17 0 C362.1 -0.02, 373.48 9.11, 373.17 32 M373.17 32 C375.47 95.5, 374.19 159.36, 373.17 269.81 M373.17 32 C370.79 96.42, 370.99 159.81, 373.17 269.81 M373.17 269.81 C371.33 291.75, 363.6 300.27, 341.17 301.81 M373.17 269.81 C371.78 290.87, 363.94 304.04, 341.17 301.81 M341.17 301.81 C238.44 302.2, 135.84 301.87, 32 301.81 M341.17 301.81 C226.9 302.46, 112.24 301.63, 32 301.81 M32 301.81 C9.52 302.78, -0.96 291.34, 0 269.81 M32 301.81 C12.51 301.74, 0.23 289.07, 0 269.81 M0 269.81 C-1.42 178.45, -2.64 86.76, 0 32 M0 269.81 C0.45 206.38, 1.21 142.92, 0 32 M0 32 C1.78 10.2, 11.96 -1.42, 32 0 M0 32 C1.66 12.95, 9.76 -0.45, 32 0" stroke="#1e1e1e" stroke-width="2" fill="none"></path></g><g transform="translate(736.2192555070446 12.466274888756743) rotate(0 50.576171875 11.5)"><text x="0" y="18.400390625" font-family="Helvetica, Segoe UI Emoji" font-size="20px" fill="#1e1e1e" text-anchor="start" style="white-space: pre;" direction="ltr" dominant-baseline="alphabetic">Server side</text></g><g stroke-linecap="round" transform="translate(239.0745085963049 76.4999521228965) rotate(0 63.59287127359079 56.031106826843825)"><path d="M28.02 0 C49.53 -2.23, 62.06 0.82, 99.17 0 C119.14 -0.14, 128.82 7.15, 127.19 28.02 C127.9 43.02, 124.92 54.21, 127.19 84.05 C128.95 105.65, 114.33 111.5, 99.17 112.06 C80.69 109.19, 60.98 113.31, 28.02 112.06 C10.45 111.96, -0.09 101.5, 0 84.05 C3.77 68.88, 0.45 60.09, 0 28.02 C-2.78 10.97, 11.29 2.55, 28.02 0" stroke="none" stroke-width="0" fill="#ffffff"></path><path d="M28.02 0 C48.31 0.15, 69.26 -1.56, 99.17 0 M28.02 0 C51.23 0.58, 73.69 0.82, 99.17 0 M99.17 0 C116.12 0.71, 125.84 8.99, 127.19 28.02 M99.17 0 C118.3 1.93, 128.67 10.13, 127.19 28.02 M127.19 28.02 C127.48 40.02, 128.26 49.35, 127.19 84.05 M127.19 28.02 C126.75 44.74, 126.35 59.22, 127.19 84.05 M127.19 84.05 C126.88 104.57, 116.42 114.05, 99.17 112.06 M127.19 84.05 C129.39 104.8, 116.57 112.15, 99.17 112.06 M99.17 112.06 C72.03 109.77, 47.99 112.4, 28.02 112.06 M99.17 112.06 C83.72 112.09, 69.59 112.69, 28.02 112.06 M28.02 112.06 C9.09 111.89, -1.34 101.29, 0 84.05 M28.02 112.06 C10.32 114.3, 0.2 104.26, 0 84.05 M0 84.05 C1.79 69.01, 2.28 53, 0 28.02 M0 84.05 C-0.78 71.15, 0.63 57.93, 0 28.02 M0 28.02 C-0.1 8.95, 8.7 -0.59, 28.02 0 M0 28.02 C1.23 9.04, 8.03 -1.98, 28.02 0" stroke="#1e1e1e" stroke-width="2" fill="none"></path></g><g transform="translate(262.0960908073957 121.03105894974033) rotate(0 40.5712890625 11.5)"><text x="40.5712890625" y="18.400390625" font-family="Helvetica, Segoe UI Emoji" font-size="20px" fill="#1e1e1e" text-anchor="middle" style="white-space: pre;" direction="ltr" dominant-baseline="alphabetic">SOCKS5</text></g><g stroke-linecap="round" transform="translate(630.8452883930939 82.4172746321724) rotate(0 63.59287127359079 56.031106826843825)"><path d="M28.02 0 C49.97 -1.65, 69.31 -3.08, 99.17 0 C114.55 1.97, 130.58 10.08, 127.19 28.02 C127.98 45.44, 128.33 70.19, 127.19 84.05 C127.97 106.06, 114.65 109.88, 99.17 112.06 C72.99 113.84, 54.47 115.47, 28.02 112.06 C6.84 114.87, -1.13 106.14, 0 84.05 C-0.06 67.59, 3.06 52.02, 0 28.02 C0.32 8.99, 12.82 -0.85, 28.02 0" stroke="none" stroke-width="0" fill="#ffffff"></path><path d="M28.02 0 C46.44 -1.65, 62.94 -0.73, 99.17 0 M28.02 0 C43.63 0.51, 58.75 -0.17, 99.17 0 M99.17 0 C117.84 -1.16, 125.96 8.78, 127.19 28.02 M99.17 0 C117.1 1.59, 129.27 10.34, 127.19 28.02 M127.19 28.02 C127.87 46.38, 125.99 67.38, 127.19 84.05 M127.19 28.02 C127.68 42.28, 127.59 57.51, 127.19 84.05 M127.19 84.05 C126.87 101.01, 116.04 112.7, 99.17 112.06 M127.19 84.05 C128.41 104.32, 119.71 112.97, 99.17 112.06 M99.17 112.06 C75.47 110.47, 48.75 111.99, 28.02 112.06 M99.17 112.06 C71.66 112.25, 44.53 111.63, 28.02 112.06 M28.02 112.06 C10.37 112.16, 1.75 104.6, 0 84.05 M28.02 112.06 C8.45 114.06, 1.93 104.12, 0 84.05 M0 84.05 C-1.98 65.86, 0.97 48.96, 0 28.02 M0 84.05 C0.44 66.6, 0.06 49.71, 0 28.02 M0 28.02 C1.98 10.94, 7.58 -0.88, 28.02 0 M0 28.02 C-2.26 10.97, 9.54 -1.56, 28.02 0" stroke="#1e1e1e" stroke-width="2" fill="none"></path></g><g transform="translate(653.8668706041847 126.94838145901622) rotate(0 40.5712890625 11.5)"><text x="40.5712890625" y="18.400390625" font-family="Helvetica, Segoe UI Emoji" font-size="20px" fill="#1e1e1e" text-anchor="middle" style="white-space: pre;" direction="ltr" dominant-baseline="alphabetic">SOCKS5</text></g><g stroke-linecap="round" transform="translate(355.009332979006 264.663469637429) rotate(0 111.67028276595376 14.200000000000045)"><path d="M7.1 0 C52.39 -1.6, 103.27 -4.08, 216.24 0 C222.74 -2.42, 222.24 3.73, 223.34 7.1 C221.81 8.3, 221.17 16.87, 223.34 21.3 C224.33 28.09, 218.44 27, 216.24 28.4 C157.85 30.92, 106.23 30.92, 7.1 28.4 C4.29 25.88, -1.24 27.12, 0 21.3 C0.75 19.46, 0.38 14.56, 0 7.1 C-3.16 5.64, 4.47 -0.86, 7.1 0" stroke="none" stroke-width="0" fill="#e9ecef"></path><path d="M7.1 0 C61.79 3.08, 117.97 1.42, 216.24 0 M7.1 0 C66.94 0.76, 126.77 0.86, 216.24 0 M216.24 0 C219.06 -0.7, 223.82 3.31, 223.34 7.1 M216.24 0 C222.78 1.82, 222.91 2.05, 223.34 7.1 M223.34 7.1 C222.44 10.23, 222.21 16.06, 223.34 21.3 M223.34 7.1 C223.36 12.56, 222.76 17.23, 223.34 21.3 M223.34 21.3 C222.6 27.24, 222.25 26.58, 216.24 28.4 M223.34 21.3 C224.39 25.19, 222.22 26.82, 216.24 28.4 M216.24 28.4 C159.63 30.85, 106.07 29.1, 7.1 28.4 M216.24 28.4 C161.05 29.33, 104.55 29.43, 7.1 28.4 M7.1 28.4 C2.93 27.12, -1.33 27.63, 0 21.3 M7.1 28.4 C0.98 28.79, 2.06 26.55, 0 21.3 M0 21.3 C-0.42 17.04, -0.1 10.88, 0 7.1 M0 21.3 C0.12 16.78, 0.8 10.84, 0 7.1 M0 7.1 C0.09 3.89, 3.38 -1.31, 7.1 0 M0 7.1 C-2.02 3.13, 4.54 2.27, 7.1 0" stroke="#1e1e1e" stroke-width="2" fill="none"></path></g><g transform="translate(404.42570949495973 269.663469637429) rotate(0 62.25390625 9.200000000000045)"><text x="62.25390625" y="14.720312499999999" font-family="Helvetica, Segoe UI Emoji" font-size="16px" fill="#1e1e1e" text-anchor="middle" style="white-space: pre;" direction="ltr" dominant-baseline="alphabetic">mTLS connection</text></g><g stroke-linecap="round" transform="translate(578.283186870448 238.68595684022193) rotate(0 30.759069627559313 40.62448078832358)"><path d="M15.38 0 C23.5 0.57, 37.31 0.19, 46.14 0 C58.69 -1.75, 65.03 3.87, 61.52 15.38 C63.46 30.87, 59.46 43.29, 61.52 65.87 C59.35 77.07, 55.6 79.48, 46.14 81.25 C36.58 80.62, 28.21 83.44, 15.38 81.25 C7.43 83.58, 0.85 78.98, 0 65.87 C-2.79 47.83, -2.73 33.67, 0 15.38 C3.12 2.07, 3.73 -1.37, 15.38 0" stroke="none" stroke-width="0" fill="#ffffff"></path><path d="M15.38 0 C22.56 0.13, 32.89 0.24, 46.14 0 M15.38 0 C22.81 0.14, 31.21 -0.15, 46.14 0 M46.14 0 C57.29 -1.53, 62.7 6.7, 61.52 15.38 M46.14 0 C57.48 -0.57, 60.24 7.07, 61.52 15.38 M61.52 15.38 C61.93 33.92, 60.55 53.19, 61.52 65.87 M61.52 15.38 C61.51 29.04, 61.87 43.78, 61.52 65.87 M61.52 65.87 C61.18 76.55, 56.1 80.6, 46.14 81.25 M61.52 65.87 C61.42 74.59, 56.98 81.8, 46.14 81.25 M46.14 81.25 C35.53 81.02, 23.86 83.27, 15.38 81.25 M46.14 81.25 C38.2 81.51, 29.69 80.46, 15.38 81.25 M15.38 81.25 C5.39 80.65, 0.99 77.04, 0 65.87 M15.38 81.25 C7.23 81.87, 0.26 76.55, 0 65.87 M0 65.87 C-1.48 46.46, 1.56 27.44, 0 15.38 M0 65.87 C-0.03 51.06, 0.05 35.1, 0 15.38 M0 15.38 C0.69 5.64, 4.83 1.2, 15.38 0 M0 15.38 C0.69 5.45, 4.8 1.35, 15.38 0" stroke="#1e1e1e" stroke-width="2" fill="none"></path></g><g transform="translate(585.4836627480074 260.9104376285454) rotate(0 23.55859375 18.40000000000009)"><text x="23.55859375" y="14.720312499999999" font-family="Helvetica, Segoe UI Emoji" font-size="16px" fill="#1e1e1e" text-anchor="middle" style="white-space: pre;" direction="ltr" dominant-baseline="alphabetic">mTLS </text><text x="23.55859375" y="33.1203125" font-family="Helvetica, Segoe UI Emoji" font-size="16px" fill="#1e1e1e" text-anchor="middle" style="white-space: pre;" direction="ltr" dominant-baseline="alphabetic">server</text></g><g stroke-linecap="round" transform="translate(293.9498362520865 236.23054114414617) rotate(0 30.759069627559313 40.62448078832358)"><path d="M15.38 0 C24.83 -2.84, 31.59 2.11, 46.14 0 C58.52 -0.27, 65.09 4.58, 61.52 15.38 C62.27 28.19, 63.53 35.87, 61.52 65.87 C61.86 77.68, 52.93 79.4, 46.14 81.25 C37.97 83.42, 33.13 84.91, 15.38 81.25 C2.69 80.85, 1.07 74.24, 0 65.87 C1.87 46.17, 1.91 29.33, 0 15.38 C3.53 2.1, 6.04 -2.24, 15.38 0" stroke="none" stroke-width="0" fill="#ffffff"></path><path d="M15.38 0 C24.58 1.03, 35.01 0.8, 46.14 0 M15.38 0 C24.09 0.47, 33.89 1.02, 46.14 0 M46.14 0 C54.53 -1.17, 62.46 7.02, 61.52 15.38 M46.14 0 C54.9 -0.89, 61.11 7.23, 61.52 15.38 M61.52 15.38 C59.7 32.37, 60.95 49.57, 61.52 65.87 M61.52 15.38 C61.14 33.54, 61.79 51.51, 61.52 65.87 M61.52 65.87 C60.67 74.37, 57.96 80.98, 46.14 81.25 M61.52 65.87 C61.55 75.28, 54.95 79.12, 46.14 81.25 M46.14 81.25 C38.96 79.14, 33.81 82.22, 15.38 81.25 M46.14 81.25 C34.56 80.88, 21.26 81.05, 15.38 81.25 M15.38 81.25 C4.28 80.43, -1.12 75.51, 0 65.87 M15.38 81.25 C3.19 82.34, -1.16 75.1, 0 65.87 M0 65.87 C-1.37 48.2, 0.13 29.16, 0 15.38 M0 65.87 C-0.52 52.58, 0.4 40.23, 0 15.38 M0 15.38 C-0.53 3.54, 5.95 1.07, 15.38 0 M0 15.38 C0.65 3.34, 6.12 1.65, 15.38 0" stroke="#1e1e1e" stroke-width="2" fill="none"></path></g><g transform="translate(301.15031212964584 258.45502193246966) rotate(0 23.55859375 18.40000000000009)"><text x="23.55859375" y="14.720312499999999" font-family="Helvetica, Segoe UI Emoji" font-size="16px" fill="#1e1e1e" text-anchor="middle" style="white-space: pre;" direction="ltr" dominant-baseline="alphabetic">mTLS </text><text x="23.55859375" y="33.1203125" font-family="Helvetica, Segoe UI Emoji" font-size="16px" fill="#1e1e1e" text-anchor="middle" style="white-space: pre;" direction="ltr" dominant-baseline="alphabetic">client</text></g><g stroke-linecap="round"><g transform="translate(312.5304062802213 189.56216577658415) rotate(0 0.353716510704146 22.46715002120709)"><path d="M0.36 0 C0.41 7.49, 0.21 37.35, 0.18 44.78 M-0.12 -0.48 C0.1 7.1, 0.92 37.82, 1.15 45.41" stroke="#1e1e1e" stroke-width="2" fill="none"></path></g><g transform="translate(312.5304062802213 189.56216577658415) rotate(0 0.353716510704146 22.46715002120709)"><path d="M-7.13 24.51 C-4.86 29.35, -2.83 35.15, 1.15 45.41 M-7.13 24.51 C-5.28 29.66, -3.3 34.46, 1.15 45.41" stroke="#1e1e1e" stroke-width="2" fill="none"></path></g><g transform="translate(312.5304062802213 189.56216577658415) rotate(0 0.353716510704146 22.46715002120709)"><path d="M8.24 24.08 C6.23 29.09, 3.99 35.01, 1.15 45.41 M8.24 24.08 C6.37 29.39, 4.63 34.3, 1.15 45.41" stroke="#1e1e1e" stroke-width="2" fill="none"></path></g></g><mask></mask><g stroke-linecap="round"><g transform="translate(333.75068474320756 235.23054114414617) rotate(0 -0.5457646770788074 -22.83418768378101)"><path d="M0.24 -0.42 C0.03 -7.98, -0.47 -37.81, -0.76 -45.36 M-0.3 0.55 C-0.59 -7.16, -1.01 -38.56, -1.03 -46.17" stroke="#1e1e1e" stroke-width="2" fill="none"></path></g><g transform="translate(333.75068474320756 235.23054114414617) rotate(0 -0.5457646770788074 -22.83418768378101)"><path d="M6.98 -24.78 C3.09 -32.51, 1.29 -42.19, -1.03 -46.17 M6.98 -24.78 C5.05 -31.27, 2.5 -37.09, -1.03 -46.17" stroke="#1e1e1e" stroke-width="2" fill="none"></path></g><g transform="translate(333.75068474320756 235.23054114414617) rotate(0 -0.5457646770788074 -22.83418768378101)"><path d="M-8.64 -24.64 C-6.44 -32.45, -2.14 -42.19, -1.03 -46.17 M-8.64 -24.64 C-6.01 -31.14, -3.99 -37, -1.03 -46.17" stroke="#1e1e1e" stroke-width="2" fill="none"></path></g></g><mask></mask><g stroke-linecap="round"><g transform="translate(617.1955970071217 237.68595684022193) rotate(0 21.782497636716315 -21.103234277180945)"><path d="M0.99 -0.81 C8.43 -7.89, 37.38 -35.41, 44.62 -42.31 M0.06 1.38 C7.43 -5.53, 36.89 -33.78, 44.22 -40.83" stroke="#1e1e1e" stroke-width="2" fill="none"></path></g><g transform="translate(617.1955970071217 237.68595684022193) rotate(0 21.782497636716315 -21.103234277180945)"><path d="M33.19 -18.39 C35.11 -23.44, 39.59 -30.53, 44.22 -40.83 M33.19 -18.39 C36.28 -24.48, 40.29 -31.85, 44.22 -40.83" stroke="#1e1e1e" stroke-width="2" fill="none"></path></g><g transform="translate(617.1955970071217 237.68595684022193) rotate(0 21.782497636716315 -21.103234277180945)"><path d="M21.35 -30.73 C26.83 -32.19, 34.86 -35.58, 44.22 -40.83 M21.35 -30.73 C27.89 -33.2, 35.45 -36.88, 44.22 -40.83" stroke="#1e1e1e" stroke-width="2" fill="none"></path></g></g><mask></mask><g stroke-linecap="round"><g transform="translate(638.756481167874 195.47948828586004) rotate(0 -19.00282526833449 21.103234277180945)"><path d="M0.6 0 C-5.7 7.07, -31.52 34.28, -38.08 41.43 M-0.54 -1.05 C-6.99 6.24, -33.12 35.56, -39.07 42.55" stroke="#1e1e1e" stroke-width="2" fill="none"></path></g><g transform="translate(638.756481167874 195.47948828586004) rotate(0 -19.00282526833449 21.103234277180945)"><path d="M-30.04 19.24 C-32.76 25.66, -36.57 31.04, -39.07 42.55 M-30.04 19.24 C-33.73 26.59, -36.23 35.9, -39.07 42.55" stroke="#1e1e1e" stroke-width="2" fill="none"></path></g><g transform="translate(638.756481167874 195.47948828586004) rotate(0 -19.00282526833449 21.103234277180945)"><path d="M-17.17 30.5 C-23.38 33.84, -30.78 36.09, -39.07 42.55 M-17.17 30.5 C-25.52 33.75, -32.6 39.05, -39.07 42.55" stroke="#1e1e1e" stroke-width="2" fill="none"></path></g></g><mask></mask><g stroke-linecap="round" transform="translate(227.55674386996293 95.92638182640485) rotate(0 9.56144586969566 20.016827721627124)"><path d="M9.14 0.52 C11.03 -0.11, 13.33 0.85, 15.01 3.35 C16.69 5.85, 18.68 11.22, 19.22 15.5 C19.76 19.78, 19.11 25.25, 18.23 29.04 C17.34 32.83, 15.83 36.58, 13.91 38.23 C12 39.88, 8.81 40.02, 6.75 38.93 C4.69 37.84, 2.61 35.11, 1.55 31.68 C0.49 28.25, 0.12 22.74, 0.38 18.35 C0.65 13.97, 1.73 8.39, 3.14 5.38 C4.56 2.37, 7.75 1.05, 8.87 0.27 C9.99 -0.51, 9.81 0.42, 9.86 0.72 M8.94 -0.55 C10.91 -0.96, 13.02 1.49, 14.55 4.18 C16.09 6.86, 17.54 11.58, 18.16 15.55 C18.78 19.51, 18.94 24.26, 18.28 27.96 C17.61 31.67, 16.02 35.9, 14.17 37.77 C12.32 39.64, 9.23 40.13, 7.18 39.19 C5.13 38.24, 3.07 35.58, 1.88 32.11 C0.69 28.64, -0.17 22.77, 0.06 18.35 C0.3 13.93, 1.73 8.57, 3.29 5.59 C4.85 2.61, 8.45 1.24, 9.4 0.45 C10.36 -0.34, 9.21 0.49, 9.03 0.83" stroke="none" stroke-width="0" fill="#ffffff"></path><path d="M9.18 -0.33 C11.24 -0.49, 14.36 2.01, 15.96 4.9 C17.56 7.78, 18.48 12.76, 18.77 16.98 C19.07 21.21, 18.68 26.6, 17.72 30.23 C16.76 33.86, 14.95 37.32, 13.02 38.77 C11.08 40.22, 8.06 40.38, 6.1 38.96 C4.15 37.54, 2.19 33.98, 1.28 30.27 C0.37 26.57, 0.23 20.95, 0.62 16.73 C1.01 12.51, 2.13 7.8, 3.64 4.93 C5.15 2.07, 8.56 0.32, 9.67 -0.44 C10.78 -1.19, 10.31 0.05, 10.32 0.41 M10.46 0.74 C12.38 0.56, 14.62 2.85, 16.01 5.55 C17.39 8.24, 18.38 12.75, 18.78 16.88 C19.18 21.01, 19.41 26.65, 18.42 30.32 C17.43 34, 15.02 37.63, 12.85 38.91 C10.69 40.2, 7.33 39.53, 5.42 38.05 C3.52 36.57, 2.23 33.8, 1.44 30.04 C0.65 26.27, 0.43 19.74, 0.7 15.46 C0.97 11.18, 1.56 6.9, 3.07 4.37 C4.57 1.84, 8.65 0.98, 9.72 0.28 C10.79 -0.43, 9.38 -0.14, 9.48 0.15" stroke="#1e1e1e" stroke-width="2" fill="none"></path></g><g transform="translate(176.0486862666694 66.61995816997887) rotate(0 33.7890625 18.40000000000009)"><text x="33.7890625" y="14.720312499999999" font-family="Helvetica, Segoe UI Emoji" font-size="16px" fill="#1e1e1e" text-anchor="middle" style="white-space: pre;" direction="ltr" dominant-baseline="alphabetic">forwarder</text><text x="33.7890625" y="33.1203125" font-family="Helvetica, Segoe UI Emoji" font-size="16px" fill="#1e1e1e" text-anchor="middle" style="white-space: pre;" direction="ltr" dominant-baseline="alphabetic">port</text></g><g stroke-linecap="round" transform="translate(563.488212806246 258.76949620231426) rotate(0 9.56144586969566 20.016827721627124)"><path d="M7.94 0.39 C9.75 -0.56, 11.98 0.53, 13.77 2.61 C15.56 4.69, 17.84 8.96, 18.67 12.86 C19.5 16.76, 19.5 21.95, 18.75 26 C17.99 30.05, 15.85 34.9, 14.14 37.17 C12.43 39.44, 10.51 40.26, 8.49 39.62 C6.47 38.98, 3.5 36.53, 2.02 33.31 C0.53 30.09, -0.47 24.59, -0.42 20.32 C-0.37 16.04, 0.91 11.01, 2.32 7.65 C3.72 4.29, 6.91 1.32, 8.01 0.17 C9.12 -0.98, 8.87 0.39, 8.95 0.75 M11.38 1.1 C13.25 1.83, 15.29 5.41, 16.63 8.82 C17.97 12.22, 19.48 17.37, 19.44 21.53 C19.39 25.69, 17.78 30.67, 16.36 33.8 C14.93 36.94, 12.89 39.9, 10.9 40.34 C8.92 40.78, 6.16 38.96, 4.42 36.44 C2.68 33.92, 1.06 29.36, 0.48 25.23 C-0.09 21.1, 0.23 15.61, 0.97 11.67 C1.7 7.73, 3.07 3.4, 4.89 1.6 C6.72 -0.21, 10.82 0.88, 11.94 0.86 C13.05 0.85, 11.75 1.3, 11.61 1.49" stroke="none" stroke-width="0" fill="#ffffff"></path><path d="M7.92 0.48 C9.86 -0.31, 13.33 0.52, 15.17 2.75 C17.01 4.97, 18.44 9.75, 18.97 13.81 C19.49 17.88, 19.21 23.21, 18.31 27.14 C17.42 31.07, 15.31 35.37, 13.58 37.41 C11.86 39.45, 9.82 40.23, 7.94 39.37 C6.07 38.52, 3.57 35.66, 2.32 32.29 C1.07 28.93, 0.4 23.49, 0.45 19.19 C0.5 14.89, 1.18 9.71, 2.61 6.51 C4.05 3.31, 8.02 1.08, 9.08 -0.01 C10.14 -1.11, 8.98 -0.45, 8.96 -0.07 M9.51 -0.42 C11.4 -0.63, 14.37 1.49, 15.9 4.26 C17.42 7.04, 18.33 11.8, 18.67 16.21 C19.02 20.61, 18.95 26.78, 17.99 30.69 C17.03 34.59, 14.9 38.37, 12.94 39.65 C10.99 40.92, 8.18 39.92, 6.26 38.32 C4.33 36.72, 2.43 33.7, 1.39 30.05 C0.34 26.39, -0.37 20.72, 0 16.41 C0.37 12.09, 2.06 6.9, 3.61 4.17 C5.16 1.44, 8.23 0.65, 9.3 0.02 C10.37 -0.6, 9.88 0.1, 10.03 0.42" stroke="#1e1e1e" stroke-width="2" fill="none"></path></g><g transform="translate(535.4519540043648 304.3918784665784) rotate(0 22.2265625 18.40000000000009)"><text x="22.2265625" y="14.720312499999999" font-family="Helvetica, Segoe UI Emoji" font-size="16px" fill="#1e1e1e" text-anchor="middle" style="white-space: pre;" direction="ltr" dominant-baseline="alphabetic">server</text><text x="22.2265625" y="33.1203125" font-family="Helvetica, Segoe UI Emoji" font-size="16px" fill="#1e1e1e" text-anchor="middle" style="white-space: pre;" direction="ltr" dominant-baseline="alphabetic">port</text></g><g stroke-linecap="round" transform="translate(24.822597643020117 102.81363420910566) rotate(0 63.399407516241354 16.31099609377702)"><path d="M8.16 0 C38.74 -2.78, 61.72 0.4, 118.64 0 C122.38 2.98, 129.4 2.48, 126.8 8.16 C129.45 13.3, 123.99 19.17, 126.8 24.47 C128.2 31.49, 126.31 35.07, 118.64 32.62 C94.42 34.16, 71.82 34.61, 8.16 32.62 C0.32 36.03, 2.71 29.29, 0 24.47 C2.06 20.85, -2.37 13.26, 0 8.16 C3.09 5.05, 1.02 -2.32, 8.16 0" stroke="none" stroke-width="0" fill="#ffffff"></path><path d="M8.16 0 C34.22 0.39, 58.65 0.98, 118.64 0 M8.16 0 C47.78 -0.79, 85.68 -0.17, 118.64 0 M118.64 0 C124.62 -0.43, 125.81 0.78, 126.8 8.16 M118.64 0 C122.66 -0.47, 127.39 4.75, 126.8 8.16 M126.8 8.16 C125.08 14.32, 126.95 18.17, 126.8 24.47 M126.8 8.16 C126.97 14.61, 125.89 20.24, 126.8 24.47 M126.8 24.47 C126.23 30.49, 122.38 31.85, 118.64 32.62 M126.8 24.47 C126.66 31.18, 121.93 32.44, 118.64 32.62 M118.64 32.62 C90.88 34.2, 64.45 31.59, 8.16 32.62 M118.64 32.62 C87.64 32.38, 56.91 32.41, 8.16 32.62 M8.16 32.62 C4.09 30.89, -1.26 31.02, 0 24.47 M8.16 32.62 C0.51 30.33, 0.3 29.73, 0 24.47 M0 24.47 C-0.82 17.62, 0.44 13.66, 0 8.16 M0 24.47 C-0.53 19.42, 0.06 13.37, 0 8.16 M0 8.16 C0.17 2.79, 3.71 1.82, 8.16 0 M0 8.16 C1.66 2.05, 3.83 0.47, 8.16 0" stroke="#1e1e1e" stroke-width="2" fill="none"></path></g><g transform="translate(69.54622390926147 109.92463030288263) rotate(0 18.67578125 9.200000000000045)"><text x="18.67578125" y="14.720312499999999" font-family="Helvetica, Segoe UI Emoji" font-size="16px" fill="#1e1e1e" text-anchor="middle" style="white-space: pre;" direction="ltr" dominant-baseline="alphabetic">client</text></g><g stroke-linecap="round"><g transform="translate(153.5542129622047 120.80609381583736) rotate(0 36.15552212468117 0.5085280677712944)"><path d="M1.18 0.57 C13.3 0.77, 61.67 1.44, 73.46 1.36 M0.34 -0.17 C12.34 -0.37, 61.35 -0.77, 73.11 -0.58" stroke="#2f9e44" stroke-width="2" fill="none"></path></g><g transform="translate(153.5542129622047 120.80609381583736) rotate(0 36.15552212468117 0.5085280677712944)"><path d="M49.61 7.93 C59.01 6.54, 67.09 0.9, 73.11 -0.58 M49.61 7.93 C55.37 6.69, 60.58 3.72, 73.11 -0.58" stroke="#2f9e44" stroke-width="2" fill="none"></path></g><g transform="translate(153.5542129622047 120.80609381583736) rotate(0 36.15552212468117 0.5085280677712944)"><path d="M49.63 -9.17 C59.05 -4.4, 67.13 -3.89, 73.11 -0.58 M49.63 -9.17 C55.51 -6.59, 60.71 -5.73, 73.11 -0.58" stroke="#2f9e44" stroke-width="2" fill="none"></path></g></g><mask></mask><g stroke-opacity="0.2" fill-opacity="0.2" transform="translate(229.71795922187027 118.19935480973709) rotate(0 263.0149121588723 81.42193209012953)" stroke="none"><path fill="#2f9e44" d="M 0.35,-2.47 Q 0.35,-2.47 3.20,-1.90 6.05,-1.33 7.72,-1.11 9.39,-0.89 10.69,-0.82 11.99,-0.75 13.74,-0.77 15.50,-0.80 16.88,-0.87 18.26,-0.95 19.89,-0.98 21.52,-1.01 23.19,-1.04 24.86,-1.07 26.02,-1.12 27.17,-1.17 28.54,-1.24 29.90,-1.30 31.31,-1.35 32.73,-1.40 34.19,-1.44 35.65,-1.47 37.31,-1.51 38.97,-1.55 40.40,-1.54 41.83,-1.53 43.49,-1.46 45.15,-1.40 46.81,-1.36 48.48,-1.32 49.94,-1.29 51.39,-1.26 52.55,-1.21 53.71,-1.16 55.31,-1.01 56.92,-0.86 58.03,-0.71 59.13,-0.55 60.65,-0.31 62.17,-0.07 63.63,0.14 65.10,0.37 66.31,0.54 67.51,0.71 69.23,0.94 70.94,1.16 72.36,1.40 73.78,1.64 75.18,2.19 76.58,2.74 78.06,3.37 79.54,4.01 80.64,4.59 81.74,5.18 82.83,5.91 83.93,6.64 84.91,7.59 85.88,8.54 86.68,9.63 87.48,10.72 88.22,11.88 88.95,13.04 89.48,14.21 90.01,15.39 90.54,16.85 91.06,18.31 91.47,19.54 91.88,20.77 92.29,22.27 92.71,23.78 92.95,25.01 93.19,26.24 93.53,27.79 93.87,29.35 94.06,30.53 94.25,31.72 94.47,33.24 94.68,34.76 94.83,36.62 94.97,38.47 95.03,40.49 95.09,42.51 95.14,44.29 95.20,46.08 95.23,47.98 95.26,49.89 95.24,51.05 95.23,52.22 95.19,53.51 95.15,54.81 95.11,56.14 95.07,57.48 95.05,58.72 95.02,59.95 95.01,61.08 95.00,62.22 95.00,63.35 94.99,64.47 94.99,65.57 94.98,66.68 94.99,68.75 94.99,70.83 94.98,72.02 94.96,73.20 94.95,74.45 94.93,75.69 94.92,76.91 94.90,78.12 94.86,79.61 94.81,81.09 94.75,82.71 94.68,84.32 94.65,85.83 94.62,87.34 94.58,88.90 94.55,90.45 94.51,92.02 94.48,93.59 94.44,95.07 94.40,96.54 94.35,97.85 94.29,99.17 94.25,100.43 94.20,101.68 94.17,102.95 94.13,104.21 94.07,105.61 94.01,107.02 93.93,108.54 93.85,110.06 93.81,111.37 93.78,112.68 93.75,113.81 93.73,114.94 93.70,116.05 93.68,117.16 93.68,119.11 93.69,121.07 93.72,122.41 93.74,123.75 93.75,124.93 93.76,126.10 93.76,127.30 93.75,128.50 93.78,129.58 93.81,130.66 93.88,131.82 93.96,132.99 94.19,134.42 94.43,135.85 94.71,136.98 94.99,138.11 95.31,139.16 95.63,140.21 95.99,141.47 96.34,142.74 96.84,143.88 97.33,145.03 97.94,145.97 98.55,146.92 99.48,147.85 100.40,148.77 101.40,149.51 102.40,150.26 103.82,150.87 105.25,151.49 106.47,151.97 107.69,152.44 109.16,152.94 110.63,153.45 112.31,153.83 113.98,154.22 116.07,154.58 118.15,154.95 119.30,155.14 120.44,155.33 121.53,155.48 122.63,155.64 124.43,155.80 126.22,155.96 127.62,156.01 129.02,156.06 130.59,156.04 132.15,156.02 133.84,156.03 135.52,156.04 136.65,156.07 137.78,156.10 138.93,156.12 140.08,156.15 142.19,156.17 144.29,156.19 145.51,156.20 146.72,156.21 148.05,156.22 149.38,156.23 150.74,156.24 152.10,156.26 153.38,156.26 154.66,156.26 155.84,156.26 157.03,156.26 158.18,156.26 159.34,156.26 160.63,156.27 161.92,156.29 163.58,156.36 165.24,156.44 167.03,156.52 168.82,156.61 170.55,156.67 172.28,156.73 174.04,156.78 175.79,156.83 177.45,156.85 179.11,156.87 180.56,156.86 182.02,156.84 183.10,156.79 184.19,156.74 185.56,156.63 186.94,156.51 188.27,156.39 189.60,156.27 191.36,156.15 193.12,156.03 195.15,155.94 197.18,155.85 199.04,155.77 200.91,155.70 202.45,155.67 203.99,155.63 206.17,155.69 208.35,155.75 209.99,155.87 211.63,155.99 213.36,156.13 215.09,156.26 216.52,156.32 217.95,156.37 219.17,156.41 220.39,156.45 221.64,156.51 222.89,156.57 224.23,156.67 225.57,156.76 226.95,156.87 228.33,156.98 229.61,157.08 230.89,157.17 232.14,157.24 233.39,157.31 234.80,157.42 236.22,157.53 237.71,157.66 239.19,157.78 240.61,157.88 242.02,157.97 243.29,158.03 244.56,158.08 246.43,158.11 248.29,158.13 250.04,158.16 251.78,158.19 253.82,158.24 255.87,158.28 256.99,158.29 258.11,158.30 259.44,158.34 260.77,158.39 262.19,158.46 263.62,158.52 264.98,158.57 266.35,158.61 267.49,158.61 268.63,158.61 270.35,158.56 272.06,158.51 273.76,158.46 275.45,158.42 277.26,158.41 279.06,158.40 281.20,158.44 283.33,158.49 284.59,158.54 285.84,158.59 287.13,158.65 288.42,158.71 289.68,158.75 290.95,158.78 292.26,158.81 293.56,158.84 294.98,158.89 296.39,158.94 297.83,159.00 299.27,159.07 300.53,159.09 301.78,159.11 302.88,159.10 303.98,159.10 305.86,159.09 307.73,159.09 309.50,159.09 311.28,159.10 313.55,159.17 315.82,159.24 317.29,159.29 318.76,159.35 320.41,159.44 322.06,159.54 323.73,159.63 325.40,159.73 326.85,159.79 328.30,159.85 329.45,159.88 330.61,159.90 332.32,159.93 334.03,159.96 335.28,159.94 336.54,159.92 337.61,159.88 338.68,159.83 339.78,159.78 340.88,159.74 341.96,159.70 343.04,159.66 344.20,159.61 345.36,159.57 346.78,159.47 348.20,159.37 349.29,159.28 350.38,159.20 351.77,159.12 353.16,159.04 354.41,158.90 355.67,158.76 357.45,158.36 359.23,157.96 360.87,157.43 362.51,156.90 363.74,156.35 364.98,155.79 366.15,155.14 367.32,154.49 368.46,153.77 369.60,153.04 370.58,152.28 371.57,151.52 372.53,150.51 373.50,149.51 374.29,148.74 375.08,147.98 375.94,147.21 376.81,146.43 377.67,145.66 378.53,144.89 379.40,144.12 380.28,143.35 381.11,142.61 381.93,141.87 382.94,140.62 383.96,139.37 385.12,137.73 386.29,136.10 386.94,135.18 387.60,134.27 388.26,133.41 388.91,132.56 390.21,130.99 391.50,129.42 392.23,128.57 392.95,127.72 393.65,126.89 394.34,126.06 395.36,124.64 396.38,123.23 397.35,121.67 398.31,120.12 398.97,119.18 399.62,118.24 400.28,117.30 400.93,116.35 401.66,115.33 402.38,114.30 403.24,113.19 404.09,112.08 404.97,110.95 405.85,109.81 406.69,108.63 407.53,107.44 408.24,106.28 408.94,105.13 409.49,104.11 410.04,103.10 410.59,102.11 411.14,101.13 411.77,100.07 412.40,99.01 413.10,97.86 413.80,96.71 414.49,95.57 415.17,94.43 415.85,93.33 416.53,92.22 417.20,91.18 417.87,90.14 418.46,89.18 419.05,88.22 419.61,87.25 420.17,86.28 420.71,85.28 421.26,84.28 421.79,83.29 422.33,82.30 423.22,80.59 424.10,78.87 425.01,77.16 425.91,75.46 426.49,74.45 427.07,73.44 427.62,72.51 428.16,71.57 429.20,69.87 430.25,68.17 430.89,67.24 431.53,66.30 432.23,65.37 432.92,64.43 433.62,63.52 434.31,62.61 435.41,61.09 436.51,59.58 437.36,58.26 438.21,56.94 438.98,55.71 439.75,54.48 440.71,53.12 441.67,51.76 442.88,50.18 444.09,48.61 445.22,47.24 446.35,45.87 447.39,44.50 448.44,43.14 449.45,41.83 450.47,40.52 451.47,39.22 452.47,37.93 453.39,36.98 454.32,36.04 455.38,35.10 456.44,34.17 457.59,33.26 458.75,32.35 459.81,31.58 460.87,30.80 461.88,30.16 462.88,29.52 464.19,28.89 465.49,28.26 466.81,27.72 468.14,27.19 469.57,26.70 470.99,26.20 473.10,25.61 475.20,25.03 476.36,24.76 477.51,24.49 479.40,24.07 481.29,23.66 483.02,23.36 484.76,23.06 485.99,22.83 487.22,22.59 488.51,22.37 489.80,22.15 491.07,21.96 492.33,21.76 493.82,21.50 495.32,21.25 496.46,21.07 497.60,20.90 499.10,20.81 500.60,20.72 502.29,20.70 503.98,20.68 505.21,20.66 506.44,20.64 507.99,20.61 509.55,20.59 510.84,20.56 512.13,20.54 513.40,20.51 514.67,20.49 515.77,20.51 516.88,20.54 518.13,20.54 519.38,20.54 520.46,20.67 521.54,20.80 523.81,20.96 526.07,21.12 526.67,21.22 527.26,21.33 527.78,21.61 528.31,21.90 528.72,22.34 529.13,22.79 529.37,23.33 529.62,23.88 529.67,24.48 529.73,25.08 529.59,25.66 529.46,26.25 529.14,26.76 528.82,27.27 528.36,27.65 527.90,28.04 527.34,28.25 526.77,28.47 526.17,28.49 525.57,28.51 525.00,28.35 524.42,28.18 523.93,27.83 523.44,27.49 523.08,27.01 522.72,26.52 522.54,25.95 522.35,25.38 522.36,24.78 522.37,24.18 522.57,23.61 522.77,23.05 523.14,22.57 523.51,22.10 524.01,21.77 524.51,21.44 525.09,21.29 525.67,21.13 526.27,21.17 526.87,21.21 527.43,21.44 527.98,21.67 528.43,22.07 528.89,22.46 529.19,22.98 529.49,23.50 529.61,24.09 529.74,24.68 529.66,25.27 529.59,25.87 529.33,26.41 529.07,26.95 528.65,27.38 528.23,27.82 527.70,28.09 527.16,28.36 526.57,28.45 525.97,28.54 525.97,28.54 525.98,28.54 523.89,28.37 521.81,28.20 520.69,28.08 519.58,27.96 518.39,27.86 517.19,27.76 515.93,27.70 514.67,27.63 513.40,27.60 512.13,27.58 510.86,27.56 509.58,27.55 508.03,27.53 506.49,27.52 505.29,27.52 504.08,27.52 502.49,27.57 500.89,27.61 499.68,27.68 498.47,27.74 497.42,27.87 496.36,28.01 494.83,28.22 493.29,28.43 492.05,28.59 490.81,28.76 489.58,28.93 488.35,29.10 487.07,29.30 485.80,29.50 484.21,29.76 482.63,30.03 480.90,30.43 479.16,30.84 478.10,31.14 477.04,31.45 475.97,31.79 474.90,32.14 473.35,32.69 471.79,33.24 470.64,33.65 469.49,34.06 468.35,34.55 467.21,35.03 465.98,35.72 464.75,36.40 463.82,37.04 462.90,37.69 461.82,38.52 460.74,39.35 459.84,40.10 458.95,40.86 458.16,41.60 457.38,42.34 456.45,43.42 455.53,44.50 454.53,45.74 453.53,46.98 452.38,48.48 451.22,49.98 450.14,51.26 449.06,52.54 447.95,54.00 446.84,55.46 445.87,56.77 444.91,58.08 444.14,59.17 443.38,60.27 442.38,61.69 441.39,63.11 440.22,64.66 439.05,66.20 437.75,67.94 436.45,69.68 435.32,71.38 434.20,73.07 433.18,74.71 432.17,76.34 431.61,77.34 431.05,78.33 430.12,79.95 429.20,81.57 428.22,83.29 427.24,85.01 426.68,85.99 426.13,86.97 425.54,88.03 424.95,89.08 424.33,90.12 423.71,91.15 423.08,92.13 422.45,93.11 421.80,94.09 421.16,95.08 420.50,96.13 419.85,97.18 419.18,98.35 418.50,99.52 417.82,100.69 417.14,101.86 416.53,102.87 415.92,103.87 415.37,104.81 414.81,105.74 414.21,106.81 413.61,107.87 412.86,109.18 412.12,110.48 411.29,111.83 410.45,113.17 409.64,114.36 408.82,115.55 408.08,116.62 407.33,117.69 406.66,118.71 405.99,119.74 404.76,121.58 403.53,123.43 402.47,125.10 401.41,126.77 400.22,128.35 399.04,129.93 398.34,130.78 397.64,131.64 396.29,133.28 394.94,134.92 393.78,136.36 392.62,137.80 391.99,138.71 391.37,139.62 390.74,140.53 390.12,141.45 388.89,143.10 387.66,144.75 386.90,145.58 386.13,146.41 385.30,147.19 384.47,147.97 383.65,148.75 382.83,149.52 381.24,151.06 379.65,152.59 378.30,154.00 376.96,155.41 375.65,156.52 374.35,157.63 373.07,158.45 371.79,159.26 370.37,160.06 368.94,160.86 367.50,161.51 366.06,162.15 364.36,162.73 362.66,163.31 360.67,163.82 358.67,164.33 357.59,164.54 356.51,164.75 355.14,164.98 353.77,165.21 352.39,165.40 351.01,165.59 349.86,165.73 348.70,165.87 347.11,165.95 345.52,166.04 344.28,166.02 343.04,166.01 341.96,165.97 340.88,165.93 339.77,165.88 338.66,165.83 337.52,165.77 336.38,165.70 335.02,165.58 333.67,165.46 332.02,165.29 330.36,165.11 329.24,165.03 328.13,164.95 326.70,164.91 325.28,164.87 323.63,164.90 321.97,164.92 320.36,164.96 318.74,165.00 317.24,165.04 315.74,165.08 313.40,165.03 311.07,164.99 309.32,164.90 307.57,164.81 305.75,164.72 303.93,164.63 302.81,164.60 301.69,164.58 300.41,164.56 299.14,164.54 297.72,164.53 296.30,164.52 294.92,164.53 293.53,164.54 292.20,164.55 290.87,164.56 289.56,164.57 288.24,164.57 286.96,164.55 285.68,164.53 284.47,164.52 283.26,164.51 281.10,164.48 278.95,164.45 277.20,164.40 275.45,164.35 273.75,164.31 272.05,164.27 270.32,164.21 268.58,164.15 267.43,164.13 266.27,164.11 264.87,164.11 263.47,164.11 262.07,164.10 260.66,164.10 259.36,164.09 258.07,164.09 256.91,164.08 255.75,164.07 253.61,163.98 251.47,163.88 249.73,163.74 247.99,163.59 246.13,163.43 244.28,163.27 243.00,163.19 241.72,163.10 240.28,163.03 238.84,162.96 237.36,162.88 235.87,162.81 234.47,162.73 233.06,162.65 231.77,162.57 230.48,162.48 229.21,162.38 227.95,162.28 226.58,162.19 225.21,162.10 223.90,162.02 222.58,161.94 221.37,161.86 220.17,161.78 218.99,161.72 217.82,161.66 216.38,161.64 214.94,161.63 213.22,161.67 211.49,161.71 209.88,161.75 208.27,161.80 206.09,161.78 203.90,161.76 202.46,161.71 201.02,161.67 199.21,161.68 197.39,161.69 195.36,161.73 193.33,161.78 191.53,161.80 189.73,161.81 188.39,161.77 187.05,161.73 185.62,161.64 184.19,161.55 183.10,161.50 182.02,161.45 180.56,161.44 179.11,161.42 177.45,161.45 175.79,161.47 174.04,161.52 172.28,161.57 170.56,161.63 168.83,161.68 167.04,161.77 165.25,161.86 163.59,161.94 161.93,162.02 160.64,162.04 159.35,162.06 158.21,162.06 157.06,162.07 155.89,162.08 154.72,162.09 153.46,162.12 152.20,162.15 150.86,162.21 149.52,162.27 148.17,162.34 146.82,162.41 145.56,162.46 144.29,162.51 142.19,162.53 140.08,162.56 138.93,162.58 137.78,162.61 135.68,162.65 133.57,162.69 132.29,162.67 131.01,162.65 129.88,162.60 128.75,162.56 127.22,162.46 125.69,162.36 123.78,162.20 121.88,162.05 120.71,161.93 119.54,161.82 118.39,161.70 117.24,161.57 115.02,161.31 112.80,161.05 111.72,160.88 110.64,160.71 108.73,160.23 106.82,159.75 105.27,159.24 103.72,158.72 102.48,158.23 101.24,157.74 100.26,157.30 99.28,156.87 98.16,156.14 97.05,155.40 95.98,154.50 94.92,153.60 94.10,152.70 93.27,151.79 92.51,150.69 91.74,149.58 91.16,148.38 90.57,147.19 90.13,145.97 89.68,144.75 89.39,143.44 89.09,142.13 88.79,140.91 88.49,139.69 88.20,138.35 87.91,137.01 87.74,135.79 87.58,134.58 87.52,133.26 87.46,131.94 87.48,130.71 87.50,129.49 87.57,128.26 87.64,127.04 87.75,125.88 87.85,124.71 87.96,123.52 88.06,122.33 88.16,120.73 88.26,119.13 88.31,118.02 88.37,116.91 88.45,115.80 88.52,114.69 88.60,113.60 88.68,112.51 88.74,111.18 88.80,109.86 88.83,108.34 88.87,106.82 88.92,105.43 88.96,104.03 89.02,102.73 89.08,101.42 89.16,100.16 89.24,98.90 89.32,97.66 89.41,96.42 89.44,95.00 89.47,93.58 89.44,92.02 89.41,90.45 89.38,88.90 89.35,87.34 89.31,85.83 89.28,84.32 89.22,82.71 89.15,81.09 89.11,79.61 89.06,78.12 89.05,76.91 89.03,75.69 89.02,74.45 89.00,73.20 88.99,72.02 88.97,70.83 88.98,68.75 88.98,66.68 88.98,65.58 88.97,64.47 88.96,63.35 88.96,62.22 88.95,61.09 88.94,59.96 88.91,58.73 88.88,57.49 88.84,56.17 88.79,54.84 88.74,53.57 88.69,52.29 88.65,51.16 88.60,50.03 88.52,48.17 88.44,46.32 88.36,44.58 88.27,42.85 88.13,40.95 87.99,39.06 87.80,37.38 87.60,35.70 87.38,34.32 87.15,32.94 86.88,31.39 86.62,29.83 86.36,28.73 86.11,27.63 85.90,26.58 85.69,25.52 85.36,24.27 85.03,23.02 84.64,21.86 84.24,20.70 83.73,19.29 83.23,17.88 82.70,16.71 82.17,15.54 81.46,14.48 80.74,13.43 80.01,12.61 79.28,11.79 78.19,11.07 77.09,10.34 76.04,9.78 74.99,9.23 73.59,8.57 72.19,7.92 71.08,7.56 69.96,7.21 68.35,6.94 66.73,6.67 65.59,6.54 64.46,6.40 63.00,6.31 61.54,6.22 59.97,6.16 58.41,6.10 57.30,6.01 56.20,5.92 55.04,5.78 53.88,5.64 52.55,5.51 51.22,5.38 49.77,5.33 48.32,5.28 46.60,5.24 44.88,5.21 43.30,5.15 41.72,5.09 40.36,5.04 38.99,5.00 37.40,5.03 35.82,5.06 34.27,5.07 32.73,5.08 31.31,5.03 29.90,4.98 28.54,4.91 27.18,4.85 25.99,4.79 24.81,4.74 23.09,4.66 21.37,4.59 19.78,4.48 18.18,4.37 16.75,4.25 15.31,4.13 13.46,3.92 11.60,3.71 10.23,3.55 8.86,3.39 7.14,3.19 5.42,3.00 2.53,2.74 -0.35,2.47 -0.65,2.39 -0.94,2.31 -1.20,2.17 -1.46,2.02 -1.68,1.81 -1.91,1.61 -2.07,1.36 -2.24,1.10 -2.34,0.82 -2.44,0.54 -2.47,0.24 -2.50,-0.05 -2.45,-0.35 -2.41,-0.65 -2.29,-0.93 -2.18,-1.21 -2.00,-1.45 -1.83,-1.70 -1.60,-1.89 -1.37,-2.09 -1.10,-2.22 -0.83,-2.35 -0.53,-2.42 -0.24,-2.48 0.05,-2.48 0.35,-2.47 0.35,-2.47 L 0.35,-2.47 Z"></path></g><g stroke-linecap="round"><g transform="translate(759.9549545206439 138.71878118009363) rotate(0 24.099880104339768 0.5215646701806236)"><path d="M0.32 -0.42 C8.3 -0.23, 39.77 0.66, 47.69 0.97 M-0.17 0.56 C7.98 0.85, 40.47 1.63, 48.67 1.64" stroke="#2f9e44" stroke-width="2" fill="none"></path></g><g transform="translate(759.9549545206439 138.71878118009363) rotate(0 24.099880104339768 0.5215646701806236)"><path d="M25.9 9.56 C31.27 6.44, 38.01 4.65, 48.67 1.64 M25.9 9.56 C34.84 6.83, 42.71 3.81, 48.67 1.64" stroke="#2f9e44" stroke-width="2" fill="none"></path></g><g transform="translate(759.9549545206439 138.71878118009363) rotate(0 24.099880104339768 0.5215646701806236)"><path d="M26.14 -6.93 C31.41 -5.62, 38.09 -2.98, 48.67 1.64 M26.14 -6.93 C35.04 -3.49, 42.82 -0.35, 48.67 1.64" stroke="#2f9e44" stroke-width="2" fill="none"></path></g></g><mask></mask><g stroke-linecap="round" transform="translate(809.3740299226432 125.29442275195606) rotate(0 63.399407516241354 16.31099609377702)"><path d="M8.16 0 C52.56 2.66, 97.03 4.17, 118.64 0 C124.55 -0.63, 128.1 1.12, 126.8 8.16 C127.62 14.27, 124.01 19.5, 126.8 24.47 C128.39 27.09, 126.12 29.82, 118.64 32.62 C91.12 33.98, 65.31 28.73, 8.16 32.62 C-0.2 34.14, -1.4 31.64, 0 24.47 C1 20.68, 2.59 16.47, 0 8.16 C0.1 0.04, 4.49 0.12, 8.16 0" stroke="none" stroke-width="0" fill="#ffffff"></path><path d="M8.16 0 C45.42 -0.25, 80.01 0.23, 118.64 0 M8.16 0 C31.5 -1.91, 52.67 -0.29, 118.64 0 M118.64 0 C122.82 1.67, 125.19 1.23, 126.8 8.16 M118.64 0 C123.48 1.32, 127.76 4.99, 126.8 8.16 M126.8 8.16 C127.62 15.14, 127.25 20.95, 126.8 24.47 M126.8 8.16 C126.24 11.3, 126.82 15.72, 126.8 24.47 M126.8 24.47 C128.03 31.38, 124.22 33.07, 118.64 32.62 M126.8 24.47 C127.8 31.56, 125.27 32.95, 118.64 32.62 M118.64 32.62 C80.27 30.94, 40.73 33.76, 8.16 32.62 M118.64 32.62 C83.77 32.23, 49.73 32.34, 8.16 32.62 M8.16 32.62 C1.05 32.58, -1.01 30.3, 0 24.47 M8.16 32.62 C1.43 34.3, -2.21 31.93, 0 24.47 M0 24.47 C0.7 20.15, -0.9 12.7, 0 8.16 M0 24.47 C0.08 19.33, -0.75 13.94, 0 8.16 M0 8.16 C1.56 2.81, 1.11 -0.14, 8.16 0 M0 8.16 C-0.65 2.39, 3.77 -1.93, 8.16 0" stroke="#1e1e1e" stroke-width="2" fill="none"></path></g><g transform="translate(822.0859374388846 132.40541884573304) rotate(0 50.6875 9.200000000000045)"><text x="50.6875" y="14.720312499999999" font-family="Helvetica, Segoe UI Emoji" font-size="16px" fill="#1e1e1e" text-anchor="middle" style="white-space: pre;" direction="ltr" dominant-baseline="alphabetic">internal server</text></g></svg>